<svg xmlns="http://www.w3.org/2000/svg" viewBox="0 0 398 81">
    <g fill="none" fill-rule="nonzero">
        <path fill="#000" d="M46 4H34.7421L23 31.633 11.2579 4H0l17.8553 41h10.35L46 4Zm13 7.0685c3.2842 0 6-2.3588 6-5.504C65 2.359 62.2842 0 59 0c-3.3474 0-6 2.3589-6 5.5645 0 3.1452 2.6526 5.504 6 5.504Zm5.179 4.5968H53.9473V45h10.2315V15.6653ZM104 29.858C104 20.931 97.4447 15 88.8676 15 79.3103 15 73 21.4813 73 30.4694 73 39.5187 79.494 46 89.2352 46c7.3518 0 13.0494-3.852 14.5197-9.9665h-9.8636c-.8577 1.3452-2.4506 2.14-4.5336 2.14-3.7984 0-5.8814-2.0788-6.6779-4.7692h21.1364C104 32.2426 104 31.0197 104 29.858Zm-15.1937-7.215c3.1858 0 5.33 1.712 5.8814 4.9527H82.6186c.7352-2.996 2.8182-4.9527 6.1877-4.9527Zm39.2365 14.9803c-4.2218 0-6.6946-3.1184-6.6946-7.1539 0-4.0355 2.4728-7.0927 6.6946-7.0927 2.9553 0 5.247 1.7732 5.7296 4.4635H143C142.2763 20.1972 136.0642 15 127.9825 15 118.8152 15 112 21.4813 112 30.4694 112 39.5187 118.8152 46 127.9825 46c8.0817 0 14.2938-5.1972 15.0175-12.8402h-9.2276c-.4825 2.6903-2.7743 4.4635-5.7296 4.4635ZM184 36.0162h-20.6257V4H153v41h31v-8.9838Zm39-20.3423h-9.6716v1.5929C211.179 15.8578 208.6119 15 205.388 15 197.567 15 191 21.6166 191 30.5c0 8.8221 6.5672 15.5 14.388 15.5 3.224 0 5.7911-.8577 7.9404-2.2668v1.6542H223V15.6739Zm-15.6418 22.1779c-3.9403 0-6.8657-3.247-6.8657-7.3518 0-4.1047 2.9254-7.413 6.8657-7.413 2.0896 0 4.1194.6739 5.9702 2.7569v9.251c-1.8508 2.1442-3.8806 2.7569-5.9702 2.7569ZM270.7652 15c-4.3826 0-7.3652 1.2-10.4695 3.96-2.2522-2.58-5.4174-3.96-9.1305-3.96-3.226 0-5.2956.9-7.2435 2.58V15.9H234V45h9.9217V26.34c1.4-1.8 2.9218-2.52 4.3826-2.52 3.2261 0 5.2957 1.98 5.2957 6.12V45h9.8609V28.38c0-.72-.0609-1.44-.1218-2.16 1.4609-1.74 2.9826-2.4 4.5044-2.4 3.226 0 5.2956 1.98 5.2956 6.12V45H283V28.38C283 20.1 277.826 15 270.7652 15ZM332 4h-10.2054v22.118c0 6.2849-3.4818 10.3338-8.8246 10.3338s-8.7646-4.049-8.7646-10.3338V4H294v21.9367C294 38.6877 301.3239 46 312.97 46 324.676 46 332 38.6878 332 25.9367V4Zm21 0h-10v41h10V4Zm45 9.1044V4h-36v9.1044h12.9767V45h10.0466V13.1044H398Z"/>
        <path fill="#65BFE7" d="M22 64.5192h-9.1439V77H9.1243V64.5192H0V63h22v1.5192ZM30.6547 77h-3.5684V66.413h3.5684V77ZM31 64.8767h-3.0504L23 62h4.2782L31 64.8767Zm12.3454 1.323.0956 1.1978c.7137-.4392 1.5771-.782 2.5903-1.0282C47.0445 66.1231 48.2265 66 49.5775 66c1.3381 0 2.5202.138 3.5461.4142 1.026.2762 1.8129.717 2.361 1.3226.6881-.519 1.5834-.9383 2.6858-1.2577S60.5759 66 62.0798 66c1.1087 0 2.09.0749 2.944.2246.8538.1497 1.577.3843 2.1697.7037.5926.3194 1.0418.7254 1.3477 1.2178.3059.4924.4588 1.078.4588 1.7568V77h-3.5366v-7.107c0-.4526-.1051-.8286-.3154-1.128-.2103-.2995-.5066-.539-.889-.7187-.3823-.1797-.8474-.3045-1.3955-.3743-.548-.07-1.1533-.1048-1.816-.1048-.7265 0-1.37.0598-1.9308.1796-.5608.1198-1.0419.2812-1.4433.4841-.4015.203-.72.4426-.9559.7187-.2357.2762-.3855.5707-.4492.8834V77h-3.5557v-7.0971c0-.4192-.1052-.777-.3154-1.073-.2103-.2962-.5066-.5374-.889-.7237-.3823-.1864-.8443-.3228-1.386-.4093-.5416-.0865-1.1501-.1297-1.8256-.1297-1.2617 0-2.2748.143-3.0395.4292-.7647.2861-1.3382.6588-1.7205 1.118V77H40V66.1996h3.3454ZM97.47 74.548 105.7966 63H110L99.1914 77h-3.4028L85 63h4.1833L97.47 74.548ZM118.653 77h-3.379V66.004h3.379V77ZM115 63.0874c0-.3049.1674-.5623.5023-.7724.3348-.21.831-.315 1.4886-.315.6575 0 1.1567.105 1.4977.315.341.21.5114.4675.5114.7724 0 .3049-.1705.559-.5114.7622-.341.2032-.8402.3049-1.4977.3049-.6576 0-1.1538-.1017-1.4886-.305-.3349-.2032-.5023-.4572-.5023-.7621Zm20.1852 14.5881c-1.395 0-2.6574-.131-3.787-.3929-1.1297-.262-2.0957-.6263-2.8982-1.093-.8025-.4668-1.4198-1.0226-1.8519-1.6673-.432-.6448-.6481-1.35-.6481-2.1156v-.4231c0-.8866.2438-1.679.7315-2.3776.4876-.6984 1.1389-1.2861 1.9537-1.763.8148-.4768 1.7469-.8411 2.7963-1.093s2.142-.3778 3.2778-.3778c1.432 0 2.6666.136 3.7037.408 1.037.272 1.892.6465 2.5648 1.1233.6728.4768 1.1697 1.041 1.4907 1.6925.321.6514.4815 1.36.4815 2.1256v.8362h-13.574c.0246.5037.1759.9738.4536 1.4104.2778.4365.6729.816 1.1852 1.1384.5124.3224 1.1296.5776 1.8519.7656.7222.188 1.54.282 2.4537.282 1.2098 0 2.2345-.1342 3.074-.4029.8396-.2686 1.5741-.6246 2.2037-1.0678l2.0926.8865c-.321.2686-.7098.5289-1.1666.7807-.4568.2519-.9908.4769-1.6019.675-.611.1981-1.3117.356-2.1018.4735-.7902.1175-1.6852.1763-2.6852.1763Zm-.426-9.772c-.6913 0-1.3271.0688-1.9073.2065-.5803.1377-1.0988.3375-1.5556.5994-.4568.262-.8364.5877-1.1389.9772-.3025.3896-.5093.8362-.6204 1.34h10.037v-.1411c-.037-.3627-.145-.722-.324-1.078-.179-.356-.4568-.675-.8333-.957-.3766-.2821-.8611-.5105-1.4537-.685-.5926-.1747-1.3272-.262-2.2037-.262Zm5.5927-3.1432v.1008h-2.8334l-2.7778-1.7126-2.7592 1.7126h-2.8334v-.121L133.7037 62h2.074l4.5742 2.7603Zm-7.7038 15.182c0-.3023.1698-.5575.5093-.7657.3395-.2082.8426-.3123 1.5093-.3123.6666 0 1.1728.104 1.5185.3123.3457.2082.5185.4634.5185.7656 0 .3022-.1728.554-.5185.7556-.3457.2015-.8519.3022-1.5185.3022-.6667 0-1.1698-.1007-1.5093-.3022-.3395-.2015-.5093-.4534-.5093-.7556Zm25.3365-4.4227c.609 0 1.193-.0523 1.7522-.1569.5593-.1045 1.0532-.2483 1.482-.4313.4287-.183.7766-.4004 1.0438-.652.2672-.2516.4256-.5245.4753-.8186H166c-.0497.4706-.2951.92-.7363 1.348-.4411.4281-1.0221.804-1.7429 1.1275-.7207.3235-1.5564.5817-2.507.7745-.9508.1928-1.9604.2892-3.0292.2892-1.516 0-2.8364-.1422-3.961-.4265-1.1247-.2843-2.0598-.6683-2.8054-1.152-.7456-.4836-1.3017-1.0457-1.6683-1.6862-.3666-.6405-.5499-1.317-.5499-2.0294v-.4118c0-.7124.1833-1.3889.5499-2.0294.3666-.6405.9227-1.2026 1.6683-1.6863.7456-.4836 1.6776-.8676 2.796-1.152C155.1328 66.1423 156.45 66 157.966 66c1.1806 0 2.2524.098 3.2155.2941.963.1961 1.7957.4657 2.4978.8088.7021.3432 1.252.75 1.6496 1.2206.3977.4706.6214.9772.6711 1.5196h-3.262c-.0498-.3268-.1958-.6323-.4381-.9166s-.5685-.5327-.9786-.7451c-.4101-.2124-.8979-.3807-1.4633-.505-.5654-.1241-1.196-.1862-1.892-.1862-1.0687 0-1.9541.1111-2.6562.3333-.7022.2223-1.2676.5147-1.6963.8775-.4287.3627-.73.7712-.904 1.2255-.174.4542-.261.9101-.261 1.3676v.4118c0 .4706.087.933.261 1.3872.174.4543.4722.8611.8947 1.2206.4225.3595.988.6504 1.6962.8726.7084.2222 1.6031.3333 2.6842.3333Zm31.7311-.0292H203V77h-17V63h3.7157v12.4904Zm30.5911 2.3037c-.1269-.1373-.2284-.3106-.3046-.52a5.304 5.304 0 0 1-.1903-.6538c-.33.1854-.7012.3621-1.1137.5303-.4125.1681-.863.3157-1.3516.4427-.4886.127-1.0185.2265-1.5896.2986-.5711.072-1.174.1081-1.8085.1081-1.0534 0-2.0084-.0858-2.865-.2574-.8567-.1716-1.5865-.405-2.1893-.7001-.6029-.2952-1.0693-.6435-1.3992-1.045-.33-.4016-.495-.8323-.495-1.2922 0-.5972.2158-1.124.6473-1.5805.4315-.4564 1.0502-.839 1.856-1.148.806-.3088 1.78-.5422 2.9222-.7 1.1422-.158 2.4177-.2369 3.8265-.2369h3.5028v-.8752c0-.6658-.368-1.196-1.1042-1.5907-.736-.3947-1.8212-.592-3.2553-.592-.66 0-1.2628.048-1.8085.1441-.5457.0961-1.0121.2248-1.3992.3861s-.6885.3484-.9043.5612c-.2157.2127-.3236.4358-.3236.6692h-3.5409c0-.3981.1936-.7928.5806-1.184.3871-.3913.936-.743 1.6467-1.0554.7108-.3123 1.5706-.5663 2.5795-.7619 1.009-.1956 2.1354-.2934 3.3791-.2934 1.1168 0 2.148.0772 3.0935.2316.9455.1545 1.7546.3879 2.4272.7002.6727.3123 1.1993.7018 1.58 1.1686.3808.4667.5712 1.0124.5712 1.637v5.179c0 .3774.0603.7738.1808 1.1891.1206.4153.3015.774.5426 1.076v.1647h-3.6932Zm-5.8443-1.4518c.6346 0 1.231-.048 1.7895-.1441.5584-.0961 1.066-.2214 1.523-.3758.4568-.1544.8534-.3312 1.1897-.5303.3363-.199.5997-.405.79-.6177v-2.2857h-2.9316c-2.018 0-3.5726.1699-4.664.5096-1.0915.3398-1.6373.8529-1.6373 1.5393 0 .2677.0825.5182.2475.7516.165.2334.4157.4341.752.6023.3363.1682.7488.302 1.2374.4016.4886.0995 1.0565.1492 1.7038.1492Zm3.5409-11.3153h-3.027L210.065 62h4.2453l3.6932 3.027Zm17.342 1.1726.0956 1.1979c.7137-.4392 1.5771-.782 2.5903-1.0282 1.0132-.2462 2.1952-.3693 3.5462-.3693 1.3381 0 2.5202.138 3.5461.4142 1.026.2762 1.8129.717 2.361 1.3226.6881-.519 1.5834-.9383 2.6858-1.2577S252.5759 66 254.0798 66c1.1087 0 2.09.0749 2.944.2246.8538.1497 1.577.3843 2.1697.7037.5926.3194 1.0418.7254 1.3477 1.2178.3059.4924.4588 1.078.4588 1.7568V77h-3.5366v-7.107c0-.4526-.1051-.8286-.3154-1.128-.2103-.2995-.5066-.539-.889-.7187-.3823-.1797-.8474-.3045-1.3955-.3743-.548-.07-1.1533-.1048-1.816-.1048-.7265 0-1.37.0598-1.9308.1796-.5608.1198-1.0419.2812-1.4433.4841-.4015.203-.72.4426-.9559.7187-.2357.2762-.3855.5707-.4492.8834V77h-3.5557v-7.0971c0-.4192-.1052-.777-.3154-1.073-.2103-.2962-.5066-.5374-.889-.7237-.3823-.1864-.8443-.3228-1.386-.4093-.5416-.0865-1.1501-.1297-1.8256-.1297-1.2617 0-2.2748.143-3.0395.4292-.7647.2861-1.3382.6588-1.7205 1.118V77H232V66.1996h3.3454ZM303 77h-3.7945l-14.411-10.7885V77H281V63h3.7945l14.4504 10.8365V63H303v14Zm12.2609-9.2871c.6815-.4622 1.4982-.8236 2.45-1.084.9519-.2604 2.0153-.3906 3.1904-.3906.9283 0 1.7685.07 2.5206.21.752.14 1.3924.3645 1.9212.6738.5288.3092.9372.7064 1.225 1.1914.288.485.4319 1.0726.4319 1.7627V77h-3.2609v-6.9434c0-.4101-.0822-.76-.2467-1.0498-.1645-.2897-.4084-.5257-.7315-.708-.3232-.1823-.7227-.3157-1.1986-.4004-.476-.0846-1.0253-.127-1.648-.127-1.0577 0-1.986.1563-2.785.4688-.7991.3125-1.4219.7227-1.8684 1.2305V77H312V62h3.2609v5.7129Zm32.046 9.091c-.127-.1307-.2285-.2957-.3047-.495a4.8677 4.8677 0 0 1-.1903-.6226c-.33.1764-.7012.3447-1.1137.5049-.4125.1601-.863.3006-1.3516.4215-.4886.121-1.0185.2157-1.5896.2844-.5711.0686-1.174.1029-1.8085.1029-1.0534 0-2.0084-.0817-2.865-.2451-.8567-.1634-1.5865-.3856-2.1893-.6667-.6029-.281-1.0693-.6127-1.3992-.995-.33-.3824-.495-.7925-.495-1.2305 0-.5686.2158-1.0702.6473-1.5049.4315-.4346 1.0502-.799 1.856-1.093.806-.2942 1.78-.5164 2.9222-.6668 1.1422-.1503 2.4177-.2255 3.8265-.2255h3.5028v-.8333c0-.634-.368-1.1389-1.1042-1.5147-.736-.3758-1.8212-.5637-3.2553-.5637-.66 0-1.2628.0457-1.8085.1372-.5457.0915-1.0121.214-1.3992.3677-.3871.1536-.6885.3317-.9043.5343-.2157.2026-.3236.415-.3236.6373h-3.5409c0-.3791.1936-.755.5806-1.1275.3871-.3725.936-.7075 1.6467-1.0049.7108-.2974 1.5706-.5392 2.5795-.7255 1.009-.1863 2.1354-.2794 3.3791-.2794 1.1168 0 2.148.0735 3.0935.2206.9455.147 1.7546.3693 2.4272.6667.6727.2973 1.1993.6683 1.58 1.1127.3808.4444.5712.964.5712 1.5588v4.9314c0 .3595.0603.737.1808 1.1323.1206.3955.3015.737.5426 1.0246v.1568h-3.6932Zm-5.8444-1.3823c.6346 0 1.231-.0458 1.7895-.1373.5584-.0915 1.066-.2108 1.523-.3578.4568-.147.8534-.3154 1.1897-.505.3363-.1895.5997-.3856.79-.5882V71.657h-2.9316c-2.018 0-3.5726.1617-4.664.4853-1.0915.3235-1.6373.812-1.6373 1.4656 0 .255.0825.4935.2475.7157.165.2223.4157.4134.752.5736.3363.16.7488.2875 1.2374.3823.4886.0948 1.0565.1422 1.7038.1422Zm21.6221-9.222.1058 1.3576c.6815-.4858 1.504-.8668 2.4676-1.143.9636-.2761 2.0447-.4142 3.2433-.4142.9283 0 1.7685.0715 2.5206.2146.752.143 1.3924.3727 1.9212.6888.5288.316.9372.722 1.225 1.2177.288.4958.4319 1.0964.4319 1.8018V77h-3.2609v-7.0971c0-.4192-.0822-.777-.2467-1.073-.1645-.2962-.4084-.5374-.7315-.7237-.3232-.1864-.7227-.3228-1.1986-.4093-.476-.0865-1.0253-.1297-1.648-.1297-1.0577 0-1.986.1597-2.785.479-.7991.3195-1.4219.7387-1.8684 1.2578V77H360V66.1996h3.0846Zm23.1763 1.5133c.6815-.4622 1.4982-.8236 2.45-1.084.9519-.2604 2.0153-.3906 3.1904-.3906.9283 0 1.7685.07 2.5206.21.752.14 1.3924.3645 1.9212.6738.5288.3092.9372.7064 1.225 1.1914.288.485.4319 1.0726.4319 1.7627V77h-3.2609v-6.9434c0-.4101-.0822-.76-.2467-1.0498-.1645-.2897-.4084-.5257-.7315-.708-.3232-.1823-.7227-.3157-1.1986-.4004-.476-.0846-1.0253-.127-1.648-.127-1.0577 0-1.986.1563-2.785.4688-.7991.3125-1.4219.7227-1.8684 1.2305V77H383V62h3.2609v5.7129Z"/>
    </g>
</svg>